<?xml version="1.0" encoding="utf-8"?>
<!-- Generator: Adobe Illustrator 20.1.0, SVG Export Plug-In . SVG Version: 6.00 Build 0)  -->
<svg version="1.1" id="Capa_1" xmlns="http://www.w3.org/2000/svg" xmlns:xlink="http://www.w3.org/1999/xlink" x="0px" y="0px"
	 viewBox="0 0 496.2 496.2" style="enable-background:new 0 0 496.2 496.2;" xml:space="preserve">
<style type="text/css">
	.st0{fill:#F5F7F7;}
</style>
<circle cx="250.3" cy="229.2" r="225.3"/>
<path class="st0" d="M305.7,36.5c-9.5-10.8-32.3-18.5-47.9-9.7c-34.7,19.6-23.2,48-18,56.1c12.5,19.3,23.3,36,47,80.7
	c8.1,15.2,3.5,47.8-17.4,55.3c-5.7-39.2-41.8-62.9-77.7-56.8c-81.7,14-123.4,79.6-141.5,119c-1.8,3.9-0.8,8.5,2.3,11.5
	c3.2,2.9,7.9,3.4,11.6,1.3c12.2-7.1,24-12.1,35.3-15.4c23.6-7.1,50.3-2.2,73.8,9.8l-38.7,69.4c-1.1,2-1.3,4.4-0.5,6.5
	c0.8,2.1,2.4,3.9,4.5,4.7l57.3,22.6v88.1c0,12.8,10.4,23.2,23.2,23.2h12.4c4.4,0,7.9-3.5,7.9-7.9c0-4.4-3.5-7.9-7.9-7.9h-12.4
	c-4.1,0-7.4-3.3-7.4-7.4v-81.7c4.2,2.2,6.9,6.4,6.9,11.2v8.7c0,4.4,3.5,7.9,7.9,7.9c4.4,0,7.9-3.5,7.9-7.9v-8.7
	c0-11.8-7.1-22.2-18-26.5l-4.7-1.9v-85.5c26-4.6,48.8-24.4,55.7-48.2c48.1-11.3,47.3-60.3,42.6-75.6c-1.8-5.7-5-12-7.6-16.7
	c-7-11.6-41.6-68.9-45.7-77.8c-3.4-9.1,1.6-19.9,10.4-23.5c13-5.3,31.1,4.7,36,11.4c4.7,6.6,8,14.5,9.6,30.9c0.4,3.7,5.9,3.7,6.2,0
	c1.1-10.8,1.3-11.2,1.4-15.5C320.7,63.4,318.4,50.8,305.7,36.5z M195.8,374.4l-43.1-17l35.5-63.8c2.5,0.6,5,0.9,7.6,1.2V374.4z"/>
</svg>
